<svg width="32" height="32" viewBox="0 0 32 32" fill="none" xmlns="http://www.w3.org/2000/svg">
<path d="M31.9375 15.9688C31.9375 20.2039 30.2551 24.2656 27.2604 27.2604C24.2656 30.2551 20.2039 31.9375 15.9688 31.9375C11.7336 31.9375 7.67186 30.2551 4.67714 27.2604C1.68242 24.2656 0 20.2039 0 15.9688C0 11.7336 1.68242 7.67186 4.67714 4.67714C7.67186 1.68242 11.7336 0 15.9688 0C20.2039 0 24.2656 1.68242 27.2604 4.67714C30.2551 7.67186 31.9375 11.7336 31.9375 15.9688ZM15.9688 6.84375C15.3637 6.84375 14.7835 7.08409 14.3557 7.51191C13.9278 7.93973 13.6875 8.51997 13.6875 9.125V13.6875H9.125C8.51997 13.6875 7.93973 13.9278 7.51191 14.3557C7.08409 14.7835 6.84375 15.3637 6.84375 15.9688C6.84375 16.5738 7.08409 17.154 7.51191 17.5818C7.93973 18.0097 8.51997 18.25 9.125 18.25H13.6875V22.8125C13.6875 23.4175 13.9278 23.9978 14.3557 24.4256C14.7835 24.8534 15.3637 25.0938 15.9688 25.0938C16.5738 25.0938 17.154 24.8534 17.5818 24.4256C18.0097 23.9978 18.25 23.4175 18.25 22.8125V18.25H22.8125C23.4175 18.25 23.9978 18.0097 24.4256 17.5818C24.8534 17.154 25.0938 16.5738 25.0938 15.9688C25.0938 15.3637 24.8534 14.7835 24.4256 14.3557C23.9978 13.9278 23.4175 13.6875 22.8125 13.6875H18.25V9.125C18.25 8.51997 18.0097 7.93973 17.5818 7.51191C17.154 7.08409 16.5738 6.84375 15.9688 6.84375Z" fill="#838383"/>
</svg>
