<svg width="36" height="36" viewBox="0 0 36 36" fill="none" xmlns="http://www.w3.org/2000/svg">
<path d="M33.2752 17.7539L18.7943 3.2836C18.6901 3.17913 18.5662 3.09625 18.4299 3.0397C18.2936 2.98315 18.1474 2.95404 17.9998 2.95404C17.8522 2.95404 17.7061 2.98315 17.5697 3.0397C17.4334 3.09625 17.3095 3.17913 17.2053 3.2836L2.72441 17.7539C2.30254 18.1758 2.06348 18.7488 2.06348 19.3465C2.06348 20.5875 3.07246 21.5965 4.31348 21.5965H5.83926V31.9219C5.83926 32.5441 6.34199 33.0469 6.96426 33.0469H15.7498V25.1719H19.6873V33.0469H29.0354C29.6576 33.0469 30.1604 32.5441 30.1604 31.9219V21.5965H31.6861C32.2838 21.5965 32.8568 21.3609 33.2787 20.9356C34.1541 20.0566 34.1541 18.6328 33.2752 17.7539Z" fill="#838383"/>
</svg>
