<svg width="36" height="36" viewBox="0 0 36 36" fill="none" xmlns="http://www.w3.org/2000/svg">
<path d="M6.75 33.75H20.25C20.8466 33.7494 21.4185 33.5122 21.8403 33.0903C22.2622 32.6685 22.4994 32.0966 22.5 31.5V28.125H20.25V31.5H6.75V4.5H20.25V7.875H22.5V4.5C22.4994 3.90345 22.2622 3.3315 21.8403 2.90967C21.4185 2.48784 20.8466 2.2506 20.25 2.25H6.75C6.15345 2.2506 5.5815 2.48784 5.15967 2.90967C4.73784 3.3315 4.5006 3.90345 4.5 4.5V31.5C4.5006 32.0966 4.73784 32.6685 5.15967 33.0903C5.5815 33.5122 6.15345 33.7494 6.75 33.75Z" fill="#838383"/>
<path d="M23.1593 23.1593L27.1935 19.125H11.25V16.875H27.1935L23.1593 12.8407L24.75 11.25L31.5 18L24.75 24.75L23.1593 23.1593Z" fill="#838383"/>
</svg>
